<?xml version="1.0" encoding="utf-8"?>
<!-- Generator: Adobe Illustrator 16.0.4, SVG Export Plug-In . SVG Version: 6.00 Build 0)  -->
<!DOCTYPE svg PUBLIC "-//W3C//DTD SVG 1.0//EN" "http://www.w3.org/TR/2001/REC-SVG-20010904/DTD/svg10.dtd">
<svg version="1.0" id="Layer_1" xmlns="http://www.w3.org/2000/svg" xmlns:xlink="http://www.w3.org/1999/xlink" x="0px" y="0px"
	 width="81.681px" height="84.64px" viewBox="0 0 81.681 84.64" enable-background="new 0 0 81.681 84.64" xml:space="preserve">
<path fill-rule="evenodd" clip-rule="evenodd" d="M29.833,27.688c-5.546,13.987-7.696,28.877-7.324,53.081
	c-3.395-0.904-5.715-2.434-8.577-3.65c-0.145-11.408,1.015-24.29,2.968-33.319l-3.881-4.215C9.142,49.011,7.986,61.893,7.59,73.611
	c-3.172-1.755-5.803-3.82-7.59-5.662c0.14-15.879,3.9-31.71,12.08-43.626l7.221,8.746c0,0,3.028-9.653,8.29-19.171
	C31.326,6.708,38.459,0.422,38.459,0.422l-0.123,84.107c-2.774,0.173-5.858-0.193-8.407-0.874L29.833,27.688L29.833,27.688z"/>
<path fill-rule="evenodd" clip-rule="evenodd" d="M72.587,61.819c-0.514-8.321-18.404-9.449-18.404-9.449L54.16,74.647
	C60.47,73.146,73.323,69.292,72.587,61.819L72.587,61.819z M68.136,39.257c1.414-8.718-13.849-21.424-13.849-21.424l-0.305,26.75
	C53.982,44.583,67.485,46.816,68.136,39.257L68.136,39.257z M72.292,25.356c10.822,17.436-1.01,24.29-1.01,24.29
	c12.512,4.242,14.75,18.028,1.082,26.667c-5.918,3.429-15.994,7.11-26.783,8.327L45.396,0C55.841,6.874,66.149,15.988,72.292,25.356
	L72.292,25.356z"/>
</svg>
