<?xml version="1.0" encoding="utf-8"?>
<!-- Generator: Adobe Illustrator 16.0.4, SVG Export Plug-In . SVG Version: 6.00 Build 0)  -->
<!DOCTYPE svg PUBLIC "-//W3C//DTD SVG 1.0//EN" "http://www.w3.org/TR/2001/REC-SVG-20010904/DTD/svg10.dtd">
<svg version="1.0" id="Layer_1" xmlns="http://www.w3.org/2000/svg" xmlns:xlink="http://www.w3.org/1999/xlink" x="0px" y="0px"
	 width="62.445px" height="72.652px" viewBox="0 0 62.445 72.652" enable-background="new 0 0 62.445 72.652" xml:space="preserve">
<g>
	<path fill="none" stroke="#000000" stroke-miterlimit="10" d="M51.906,46.701L51.906,46.701L51.906,46.701
		c-0.277-2.408-2.084-4.355-4.076-5.93c2.315-1.852,2.687-4.957,1.992-7.689c-1.715-6.022-5.837-11.023-10.284-15.934
		c-2.083-2.177-4.261-4.308-6.438-6.207l0,0v51.325l0,0c4.91-1.438,9.681-3.287,13.896-6.393
		C50.008,53.651,52.602,50.593,51.906,46.701L51.906,46.701z M43.43,28.96L43.43,28.96L43.43,28.96
		c1.158,2.549,3.336,5.605,1.482,8.524c-0.557,0.648-1.297,0.926-2.131,0.926c-2.084-0.186-3.799-1.251-5.467-2.455l0,0
		l0.047-14.684l0,0C39.818,23.634,41.901,26.182,43.43,28.96L43.43,28.96z M47.645,47.86L47.645,47.86L47.645,47.86
		c0.464,1.715-1.111,2.918-2.27,3.892c-2.503,1.762-5.143,3.242-8.061,4.122l0,0V40.865l0,0c1.9,0.694,3.752,1.436,5.559,2.362
		C44.681,44.199,47.229,45.545,47.645,47.86L47.645,47.86z"/>
	<path fill="none" stroke="#000000" stroke-miterlimit="10" d="M29.302,11.311V62.45l-4.124-2.129V32.899l0,0
		c0-0.819,0,0,0.062-4.64c0.003-0.237-2.87,6.691-3.907,23.307l0,0l-0.138,6.253l-3.938-2.918v-1.667l0,0
		c0.232-6.626,0.695-13.11,1.945-19.316l0,0l-1.573-1.762l0,0c-0.604,0.834-0.974,1.714-1.39,2.595
		c-1.993,5.279-2.733,11.072-3.01,17.047l0,0L9.8,49.248l0,0c0.325-9.08,2.039-17.648,7.551-24.458
		c1.066,1.205,2.13,2.456,3.195,3.613c0.556-2.455,1.343-4.817,2.271-7.133C24.346,17.704,26.059,14.092,29.302,11.311
		L29.302,11.311z"/>
	<path fill="none" stroke="#000000" stroke-miterlimit="10" d="M60.848,55.735L60.848,55.735L60.848,55.735
		c0.555-16.397-5.097-30.387-15.426-42.338c-4.262-4.771-8.987-9.033-14.314-11.58c-7.875,3.845-15.055,11.626-19.826,18.992
		C4.751,31.092,1.138,42.627,1.601,55.736l0,0l6.16,1.482l0,0c0.372,1.39,0.741,2.78,1.16,4.217l0,0l6.299,1.482l1.297,4.538
		l14.591,3.383l14.87-3.383l1.297-4.538l6.3-1.482l1.111-4.171L60.848,55.735L60.848,55.735z M42.689,16.082L42.689,16.082
		L42.689,16.082c8.755,10.516,14.359,22.327,14.499,36.41l0,0l-5.281,1.205l-1.111,4.307l-6.531,1.575l-1.16,4.54l-12.043,2.733
		l-11.672-2.733l-1.158-4.448l-0.046-0.138l-6.439-1.529l-1.204-4.308l-5.235-1.205l0,0c-0.045-1.111,0-2.13,0.094-3.195
		c0.927-12.923,6.531-23.949,14.962-33.816c3.242-3.566,6.809-7.087,10.885-9.125C35.509,8.532,39.307,12.284,42.689,16.082
		L42.689,16.082z"/>
</g>
</svg>
