<?xml version="1.0" encoding="utf-8"?>
<!-- Generator: Adobe Illustrator 16.0.4, SVG Export Plug-In . SVG Version: 6.00 Build 0)  -->
<!DOCTYPE svg PUBLIC "-//W3C//DTD SVG 1.0//EN" "http://www.w3.org/TR/2001/REC-SVG-20010904/DTD/svg10.dtd">
<svg version="1.0" id="Layer_1" xmlns="http://www.w3.org/2000/svg" xmlns:xlink="http://www.w3.org/1999/xlink" x="0px" y="0px"
	 width="62.445px" height="72.652px" viewBox="0 0 62.445 72.652" enable-background="new 0 0 62.445 72.652" xml:space="preserve">
<g>
	<path fill="#FFFFFF" d="M51.908,46.702L51.908,46.702L51.908,46.702c-0.279-2.409-2.086-4.354-4.077-5.929
		c2.316-1.854,2.688-4.957,1.991-7.689C48.108,27.062,43.986,22.06,39.54,17.15c-2.085-2.177-4.261-4.309-6.438-6.208l0,0v51.324
		l0,0c4.909-1.438,9.682-3.288,13.896-6.393C50.008,53.65,52.601,50.593,51.908,46.702L51.908,46.702z M43.429,28.961L43.429,28.961
		L43.429,28.961c1.157,2.548,3.336,5.605,1.481,8.523c-0.556,0.647-1.296,0.928-2.129,0.928c-2.086-0.186-3.799-1.252-5.467-2.455
		l0,0l0.046-14.684l0,0C39.817,23.634,41.9,26.181,43.429,28.961L43.429,28.961z M47.644,47.861L47.644,47.861L47.644,47.861
		c0.463,1.714-1.111,2.917-2.271,3.891c-2.502,1.762-5.143,3.243-8.059,4.123l0,0v-15.01l0,0c1.897,0.694,3.75,1.437,5.558,2.361
		C44.68,44.201,47.228,45.545,47.644,47.861L47.644,47.861z"/>
	<path fill="#FFFFFF" d="M29.301,11.312v51.14l-4.121-2.131V32.898l0,0c0-0.817,0,0,0.061-4.64c0.004-0.236-2.87,6.691-3.907,23.308
		l0,0l-0.139,6.254l-3.938-2.918v-1.667l0,0c0.232-6.625,0.695-13.11,1.945-19.316l0,0l-1.575-1.761l0,0
		c-0.602,0.834-0.972,1.714-1.39,2.594c-1.992,5.281-2.733,11.071-3.01,17.047l0,0L9.799,49.25l0,0
		c0.325-9.079,2.04-17.647,7.552-24.458c1.065,1.206,2.131,2.456,3.196,3.614c0.557-2.455,1.344-4.818,2.27-7.133
		C24.345,17.705,26.059,14.091,29.301,11.312L29.301,11.312z"/>
	<path fill="#FFFFFF" d="M60.847,55.735L60.847,55.735L60.847,55.735c0.555-16.397-5.097-30.387-15.426-42.338
		C41.16,8.626,36.434,4.365,31.109,1.816c-7.875,3.845-15.056,11.627-19.826,18.992C4.752,31.092,1.138,42.625,1.601,55.735l0,0
		l6.161,1.481l0,0c0.369,1.392,0.74,2.78,1.157,4.217l0,0l6.301,1.482l1.297,4.538l14.592,3.383l14.868-3.383l1.298-4.538l6.3-1.482
		l1.111-4.17L60.847,55.735L60.847,55.735z M42.688,16.084L42.688,16.084L42.688,16.084c8.755,10.516,14.358,22.328,14.499,36.409
		l0,0l-5.281,1.205l-1.111,4.308l-6.53,1.575l-1.158,4.538L31.06,66.852l-11.673-2.733l-1.159-4.446l-0.046-0.14l-6.438-1.527
		l-1.204-4.308l-5.233-1.205l0,0c-0.045-1.112,0-2.13,0.093-3.195c0.927-12.924,6.531-23.948,14.962-33.816
		c3.243-3.566,6.81-7.087,10.885-9.124C35.509,8.533,39.308,12.286,42.688,16.084L42.688,16.084z"/>
</g>
</svg>
