<?xml version="1.0" encoding="UTF-8" standalone="no"?>
<!-- Generator: Adobe Illustrator 16.0.4, SVG Export Plug-In . SVG Version: 6.00 Build 0)  -->
<!DOCTYPE svg  PUBLIC '-//W3C//DTD SVG 1.0//EN'  'http://www.w3.org/TR/2001/REC-SVG-20010904/DTD/svg10.dtd'>
<svg id="Layer_1" xmlns="http://www.w3.org/2000/svg" xml:space="preserve" height="72.652px" viewBox="0 0 62.445 72.652" width="62.445px" version="1.0" y="0px" x="0px" xmlns:xlink="http://www.w3.org/1999/xlink" enable-background="new 0 0 62.445 72.652">
<g fill="#fff">
	<path d="m51.908 46.702c-0.279-2.409-2.086-4.354-4.077-5.929 2.316-1.854 2.688-4.957 1.991-7.689-1.714-6.022-5.836-11.024-10.282-15.934-2.085-2.177-4.261-4.309-6.438-6.208v51.324c4.909-1.438 9.682-3.288 13.896-6.393 3.01-2.223 5.603-5.28 4.91-9.171zm-8.479-17.741c1.157 2.548 3.336 5.605 1.481 8.523-0.556 0.647-1.296 0.928-2.129 0.928-2.086-0.186-3.799-1.252-5.467-2.455l0.046-14.684c2.457 2.361 4.54 4.908 6.069 7.688zm4.215 18.9c0.463 1.714-1.111 2.917-2.271 3.891-2.502 1.762-5.143 3.243-8.059 4.123v-15.01c1.897 0.694 3.75 1.437 5.558 2.361 1.808 0.975 4.356 2.319 4.772 4.635z"/>
	<path d="m29.301 11.312v51.14l-4.121-2.131v-27.423c0-0.817 0 0 0.061-4.64 0.004-0.236-2.87 6.691-3.907 23.308l-0.139 6.254-3.938-2.918v-1.667c0.232-6.625 0.695-13.11 1.945-19.316l-1.575-1.761c-0.602 0.834-0.972 1.714-1.39 2.594-1.992 5.281-2.733 11.071-3.01 17.047l-3.428-2.549c0.325-9.079 2.04-17.647 7.552-24.458 1.065 1.206 2.131 2.456 3.196 3.614 0.557-2.455 1.344-4.818 2.27-7.133 1.528-3.568 3.242-7.182 6.484-9.961z"/>
	<path d="m60.847 55.735c0.555-16.397-5.097-30.387-15.426-42.338-4.261-4.771-8.987-9.032-14.312-11.581-7.875 3.845-15.056 11.627-19.826 18.992-6.531 10.284-10.145 21.817-9.682 34.927l6.161 1.481c0.369 1.392 0.74 2.78 1.157 4.217l6.301 1.482 1.297 4.538 14.592 3.383 14.868-3.383 1.298-4.538 6.3-1.482 1.111-4.17 6.161-1.528zm-18.159-39.651c8.755 10.516 14.358 22.328 14.499 36.409l-5.281 1.205-1.111 4.308-6.53 1.575-1.158 4.538-12.047 2.733-11.673-2.733-1.159-4.446-0.046-0.14-6.438-1.527-1.204-4.308-5.233-1.205c-0.045-1.112 0-2.13 0.093-3.195 0.927-12.924 6.531-23.948 14.962-33.816 3.243-3.566 6.81-7.087 10.885-9.124 4.262 2.175 8.061 5.928 11.441 9.726z"/>
</g>
</svg>
