<?xml version="1.0" encoding="utf-8"?>
<!-- Generator: Adobe Illustrator 16.0.4, SVG Export Plug-In . SVG Version: 6.00 Build 0)  -->
<!DOCTYPE svg PUBLIC "-//W3C//DTD SVG 1.1//EN" "http://www.w3.org/Graphics/SVG/1.1/DTD/svg11.dtd">
<svg version="1.1" id="Layer_1" xmlns="http://www.w3.org/2000/svg" xmlns:xlink="http://www.w3.org/1999/xlink" x="0px" y="0px"
	 width="246px" height="246px" viewBox="0 0 246 246" enable-background="new 0 0 246 246" xml:space="preserve">
<g>
	<path fill="#E6E7E8" d="M236,10v226H10V10H236 M246,0H0v246h246V0L246,0z"/>
</g>
<path id="picture-frame-icon_16_" fill="#E6E7E8" d="M90.207,107.521c0-4.886,3.962-8.848,8.848-8.848
	c4.887,0,8.848,3.962,8.848,8.848c0,4.887-3.961,8.848-8.848,8.848C94.169,116.369,90.207,112.408,90.207,107.521z M135.084,107.805
	l-14.667,20.839l-7.971-8.216L89.957,145.98h70.299L135.084,107.805z M169.529,91.105v63.789H76.471V91.105H169.529 M182.699,77.936
	H63.301v90.129h119.398V77.936L182.699,77.936z"/>
</svg>
