<svg xmlns="http://www.w3.org/2000/svg" width="101" height="141.333" viewBox="0 0 101 141.333"><ellipse opacity=".1" fill="#020202" enable-background="new" cx="50.351" cy="133.881" rx="32.934" ry="6.523"/><path fill="#F26E52" d="M.882 29.638l5.354 3.092 44.264-25.547v-6.183z"/><path fill="#E55A41" d="M100.118 29.638l-5.354 3.092-44.264-25.547v-6.183z"/><path fill="#D7513D" d="M.882 86.938l5.354-3.092 44.264 25.547v6.185z"/><path fill="#B54432" d="M100.118 86.938l-5.354-3.092-44.264 25.547v6.185z"/><path fill="#BB4F3F" d="M94.764 83.846l5.354 3.092v-57.3l-5.354 3.092z"/><path fill="#E55A41" d="M6.236 32.73l-5.354-3.092v57.3l5.354-3.092z"/><path fill="#DB533E" d="M50.274 84.046h14.968l14.746-25.537-14.746-25.537h-29.488l-14.742 25.537 14.742 25.537h14.52m.225-15.921c-5.368 0-9.719-4.349-9.719-9.717 0-5.369 4.35-9.723 9.719-9.723s9.722 4.353 9.722 9.723c0 5.367-4.353 9.717-9.722 9.717"/><path fill="#BB4F3F" d="M58.873 53.487c.851 1.445 1.348 3.123 1.348 4.921 0 5.367-4.353 9.717-9.722 9.717-3.623 0-6.777-1.985-8.448-4.924l-13.748 7.938 7.452 12.908h29.488l14.746-25.537-7.455-12.91-13.661 7.887z"/></svg>