<svg xmlns="http://www.w3.org/2000/svg" width="83.625" height="96.25" viewBox="0 0 83.625 96.25"><path fill="#992E2E" d="M41.849 95.357l-40.867-23.596v-47.189l40.867-23.59 40.87 23.589v47.189l-40.87 23.597zm-37.912-25.3l37.912 21.891 37.916-21.891v-43.779l-37.916-21.887-37.912 21.887v43.779z"/><path fill="#fff" d="M50.129 25.911c-.254-.382-.68-.614-1.139-.62-.467.023-.89.216-1.153.591l-4.101 5.858-2.072-.067-.77-1.922 4.101-5.858c.264-.376.323-.857.162-1.286-.163-.429-.527-.75-.972-.857-.764-.184-1.55-.278-2.337-.278-3.246 0-6.292 1.583-8.149 4.235-1.524 2.176-2.11 4.817-1.648 7.433.461 2.617 1.915 4.897 4.091 6.421.218.153.442.295.669.429l-.022.2-.35 29.621c0 2.788 2.269 5.057 5.056 5.057s5.056-2.269 5.056-5.073l-.348-29.454c1.496-.73 2.812-1.822 3.793-3.222 2.362-3.373 2.413-7.773.133-11.208zm-8.635 46.182c-1.258 0-2.282-1.024-2.282-2.266l.334-28.234h3.897l.333 28.218c0 1.258-1.024 2.282-2.282 2.282zm6.23-36.566c-1.342 1.916-3.541 3.059-5.884 3.059-1.475 0-2.894-.449-4.107-1.298-1.57-1.099-2.617-2.744-2.95-4.631-.333-1.887.089-3.791 1.188-5.36 1.243-1.775 3.227-2.886 5.379-3.035l-3.159 4.512c-.269.384-.326.877-.152 1.312l1.387 3.46c.205.511.693.852 1.243.87l3.727.121c.502.014.913-.207 1.181-.591l3.164-4.519c.598 2.048.256 4.282-1.017 6.1z"/></svg>