<svg xmlns="http://www.w3.org/2000/svg" width="101" height="141.333" viewBox="0 0 101 141.333"><ellipse opacity=".1" enable-background="new" cx="50.188" cy="134.381" rx="32.934" ry="6.523"/><path fill="#FCCE5B" d="M.882 29.638l5.358 3.092 44.26-25.547v-6.183z"/><path fill="#F9B947" d="M100.118 29.638l-5.353 3.092-44.264-25.547v-6.183z"/><path fill="#EEA846" d="M.882 86.939l5.358-3.093 44.26 25.547v6.184z"/><path fill="#D28D31" d="M100.118 86.939l-5.353-3.093-44.264 25.547v6.184z"/><path fill="#E2A043" d="M94.765 83.846l5.353 3.093v-57.301l-5.353 3.092z"/><path fill="#F9B947" d="M6.24 32.73l-5.358-3.092v57.301l5.358-3.093z"/><path fill="#E2A043" d="M50.501 32.848s26.08 15.022 26.717 15.392v24.149l-26.717-15.444c-.635.369-26.716 15.444-26.716 15.444v-24.401l26.716-15.14z"/><path fill="#F9B947" d="M71.259 44.805c-7.877-4.538-20.758-11.957-20.758-11.957l-26.715 15.14v24.402l47.473-27.585z"/></svg>