<svg xmlns="http://www.w3.org/2000/svg" width="101" height="141.333" viewBox="0 0 101 141.333"><ellipse opacity=".1" enable-background="new" cx="50.501" cy="133.88" rx="32.934" ry="6.523"/><path fill="#8BCEE2" d="M.882 29.637l5.358 3.093 44.261-25.547v-6.183z"/><path fill="#76B7C9" d="M100.118 29.637l-5.354 3.093-44.263-25.547v-6.183z"/><path fill="#6BA6B7" d="M.882 86.939l5.358-3.092 44.261 25.544v6.186z"/><path fill="#5795AC" d="M100.118 86.939l-5.354-3.092-44.263 25.544v6.186z"/><path fill="#6BA6B7" d="M94.764 83.847l5.354 3.092v-57.302l-5.354 3.093z"/><path fill="#76B7C9" d="M6.24 32.73l-5.358-3.093v57.302l5.358-3.092z"/><path fill-rule="evenodd" clip-rule="evenodd" fill="#76B7C9" d="M70.987 58.094h-1.59c2.198 0 3.98 1.78 3.98 3.978s-1.783 3.98-3.98 3.98h-1.594c2.199 0 3.981 1.783 3.981 3.979 0 2.198-1.782 3.982-3.981 3.982h-.791c1.755 0 3.179 1.424 3.179 3.183 0 1.756-1.424 3.183-3.184 3.183h-28.664l.011-25.47 12.731-15.913.004-3.188h.007c.004-1.76 1.421-3.184 3.174-3.184.415 0 .798.085 1.158.235.24.096.437.252.64.399l.323.218c.115.105.202.229.301.35 1.28 1.42 2.011 4.023 2.238 7.117-.539 5.36-3.065 9.19-3.065 9.19h15.120000000000001c2.199 0 3.981 1.78 3.981 3.979.002 2.2-1.78 3.982-3.979 3.982zm-44.954-3.665h8.468v27.541h-8.468v-27.541z"/><path fill="#6BA6B7" d="M26.033 72.311v9.659h8.468v-14.539zM74.968 54.114c0-2.119-1.66-3.834-3.748-3.957l-6.627.012-26.245 15.034-.005 15.176h28.664c1.76 0 3.184-1.427 3.184-3.183 0-1.759-1.424-3.183-3.179-3.183h.791c2.199 0 3.981-1.784 3.981-3.982 0-2.196-1.782-3.979-3.981-3.979h1.594c2.198 0 3.98-1.783 3.98-3.98s-1.783-3.978-3.98-3.978h1.59c2.199 0 3.981-1.782 3.981-3.98z"/></svg>