<svg xmlns="http://www.w3.org/2000/svg" width="83.625" height="96.25" viewBox="0 0 83.625 96.25"><g fill="#fff"><path d="M41.754 60.674c-6.099 0-11.061-4.963-11.061-11.063v-15.662c0-6.1 4.962-11.063 11.061-11.063 6.101 0 11.065 4.963 11.065 11.063v15.661c0 6.101-4.964 11.064-11.065 11.064zm0-34.829c-4.468 0-8.103 3.636-8.103 8.105v15.661c0 4.469 3.635 8.104 8.103 8.104 4.47 0 8.107-3.635 8.107-8.104v-15.662c0-4.469-3.636-8.104-8.107-8.104zM41.81 65.767c-9.039 0-16.392-7.354-16.392-16.391v-5.6h7.311v2.958h-4.353v2.642c0 7.407 6.026 13.432 13.434 13.432 7.409 0 13.436-6.025 13.436-13.432v-2.642h-4.352v-2.958h7.31v5.6c0 9.038-7.354 16.391-16.394 16.391zM40.334 64.288h2.958v7.531h-2.958zM30.448 70.34h22.727v2.959h-22.727zM33.624 37.449h4.955v2.958h-4.955zM44.793 37.449h5.984v2.958h-5.984zM33.085 43.642h5.493v2.958h-5.493zM44.793 43.642h5.984v2.958h-5.984z"/></g><path fill="#9A2E2E" d="M41.816 95.396l-40.942-23.637v-47.271l40.942-23.634 40.935 23.634v47.271l-40.935 23.637zm-37.984-25.344l37.984 21.928 37.977-21.929v-43.855l-37.977-21.926-37.984 21.926v43.856z"/></svg>