<svg xmlns="http://www.w3.org/2000/svg" width="126" height="144.833" viewBox="0 0 126 144.833"><g fill="#fff"><path d="M63.134 9.143l55.053 31.775v63.58l-55.053 31.772-55.053-31.772v-63.58l55.053-31.775zm0-7.69l-61.714 35.619v1.923h3.331-3.331v69.349l61.714 35.617 61.712-35.617v-71.272l-61.712-35.619zM34.006 86.551h9.46v-9.472h15.047v-5.909h-15.047v-5.037h16.391v-5.942h-25.851zM77.836 80.594c-2.585.114-5.252-.445-5.284-2.947 0-2.684 3.11-2.901 5.337-2.901 1.546 0 5.006 0 5.006 2.901-.001 2.099-1.531 2.819-5.059 2.947m-.28-15.418c1.879 0 4.784.143 4.784 2.443 0 2.582-3.439 2.582-4.6 2.582-1.894 0-4.589-.137-4.589-2.524 0-2.359 3.249-2.501 4.405-2.501m8.559 7.211s.749-.218 1.308-.406c.899-.33 3.989-1.578 3.989-4.82 0-3.842-3.616-7.36-13.229-7.36-10.148 0-14.036 3.629-14.036 7.545 0 1.644.944 3.957 5.264 5.005-1.717.407-6.074 1.455-6.074 5.9 0 4.331 4.065 7.879 13.816 7.845 8.029.144 14.789-1.692 14.975-7.845 0-4.669-4.705-5.61-6.013-5.864"/></g></svg>