<svg xmlns="http://www.w3.org/2000/svg" width="256" height="148" viewBox="0 0 256 148"><path fill="#fff" d="M128.134 10.562l55.053 31.775v63.579l-55.053 31.772-55.053-31.772v-63.58l55.053-31.774zm0-7.69l-61.714 35.62v1.923h3.331-3.331v69.349l61.714 35.616 61.712-35.616v-71.272l-61.712-35.62z"/><g fill="#FFE63C"><path d="M99.006 87.971h9.46v-9.473h15.047v-5.908h-15.047v-5.038h16.391v-5.942h-25.851zM142.836 82.013c-2.585.114-5.252-.445-5.284-2.947 0-2.684 3.11-2.901 5.337-2.901 1.546 0 5.006 0 5.006 2.901-.001 2.099-1.531 2.819-5.059 2.947m-.28-15.418c1.879 0 4.784.144 4.784 2.444 0 2.581-3.439 2.581-4.6 2.581-1.893 0-4.589-.136-4.589-2.523 0-2.359 3.249-2.502 4.405-2.502m8.559 7.211s.749-.217 1.308-.406c.899-.329 3.989-1.578 3.989-4.82 0-3.842-3.616-7.36-13.229-7.36-10.148 0-14.036 3.629-14.036 7.545 0 1.644.944 3.957 5.264 5.005-1.717.407-6.074 1.454-6.074 5.9 0 4.331 4.065 7.878 13.816 7.845 8.029.144 14.789-1.693 14.975-7.845 0-4.668-4.705-5.609-6.013-5.864"/></g><g fill="#FFE63C"><path d="M15.055 82.342h-5.849v-3.539l4.359-17.211h4.769v17.583h1.639v3.166h-1.639v5.328h-3.279v-5.327zm0-3.167v-4.769c0-2.906-.037-5.998.038-9.35l-3.093 14.119h3.055zM26.679 83.906v3.763h-3.352v-3.763h3.352zM33.943 72.88h1.49c.856 0 1.155-.485 1.155-1.267v-5.849c0-.819-.336-1.416-1.268-1.416-.931 0-1.304.597-1.304 1.416v3.092h-3.39v-3.092c0-2.645 1.006-4.545 4.693-4.545 3.688 0 4.657 1.899 4.657 4.545v5.514c0 1.564-.521 2.57-1.789 3.166 1.23.559 1.9 1.602 1.9 3.129v5.849c0 2.683-1.005 4.62-4.768 4.62-3.762 0-4.731-1.937-4.731-4.62v-3.39h3.39v3.352c0 .932.335 1.566 1.341 1.566s1.304-.597 1.304-1.566v-5.997c0-.782-.372-1.305-1.191-1.305h-1.49v-3.202zM43.817 83.385v-17.508c0-2.683 1.079-4.657 4.843-4.657 3.763 0 4.806 1.975 4.806 4.657v17.508c0 2.72-1.043 4.657-4.806 4.657-3.764 0-4.843-1.937-4.843-4.657zm6.183 0v-17.508c0-.858-.335-1.528-1.34-1.528-1.006 0-1.379.671-1.379 1.528v17.508c0 .932.373 1.566 1.379 1.566 1.005 0 1.34-.635 1.34-1.566z"/></g><g fill="#FFE63C"><path d="M208.499 84.392h6.109v3.278h-9.575v-3.726c0-9.276 5.999-8.829 5.999-15.162v-3.019c0-.819-.41-1.416-1.342-1.416-.932 0-1.304.597-1.304 1.416v3.092h-3.427v-3.092c0-2.645 1.043-4.545 4.73-4.545 3.689 0 4.807 1.899 4.807 4.545v2.943c0 7.935-5.998 7.489-5.998 14.902v.784zM218.148 83.385v-17.508c0-2.683 1.081-4.657 4.843-4.657 3.763 0 4.806 1.975 4.806 4.657v17.508c0 2.72-1.043 4.657-4.806 4.657-3.762 0-4.843-1.937-4.843-4.657zm6.184 0v-17.508c0-.858-.335-1.528-1.341-1.528s-1.378.671-1.378 1.528v17.508c0 .932.372 1.566 1.378 1.566 1.006 0 1.341-.635 1.341-1.566zM237.073 84.392h2.273v3.278h-8.011v-3.278h2.272v-17.958h-2.198v-2.384c2.013 0 2.794-1.192 2.794-2.458h2.869v22.8zM247.803 82.342h-5.849v-3.539l4.358-17.211h4.769v17.583h1.64v3.166h-1.64v5.328h-3.278v-5.327zm0-3.167v-4.769c0-2.906-.037-5.998.038-9.35l-3.093 14.119h3.055z"/></g></svg>