<svg xmlns="http://www.w3.org/2000/svg" width="83.625" height="96.25" viewBox="0 0 83.625 96.25"><g fill="#fff"><path d="M32.174 46.372c-3.83 0-6.945-2.638-6.945-5.881v-15.133h2.958v15.132c0 1.584 1.826 2.923 3.987 2.923 2.16 0 3.984-1.339 3.984-2.923v-15.132h2.958v15.132c0 3.244-3.115 5.882-6.942 5.882zM30.695 25.358h2.958v18.163h-2.958zM36.596 72.574h-8.36v-28.155h2.958v25.196h2.444v-25.06h2.958zM55.432 72.574h-8.36v-23.675c-4.033-6.885-2.242-15.17.828-20.69.852-1.531 3.075-5.091 5.331-5.091 1.016 0 2.202.722 2.202 2.759v46.697zm-5.402-2.959h2.444v-42.816c-.979 1.05-2.436 3.178-3.544 6.309-1.11 3.137-2.472 9.206.877 14.6l.223.358v21.549z"/></g><path fill="#9A2E2E" d="M41.811 95.396l-40.938-23.637v-47.273l40.938-23.632 40.942 23.632v47.273l-40.942 23.637zm-37.98-25.344l37.98 21.929 37.984-21.929v-43.858l-37.984-21.924-37.98 21.924v43.858z"/></svg>