<svg xmlns="http://www.w3.org/2000/svg" width="101" height="141.333" viewBox="0 0 101 141.333"><ellipse opacity=".1" enable-background="new" cx="50.495" cy="133.88" rx="32.934" ry="6.523"/><path fill="#85C991" d="M.881 29.638l5.356 3.092 44.262-25.547v-6.183z"/><path fill="#60B06A" d="M100.119 29.638l-5.355 3.092-44.265-25.547v-6.183z"/><path fill="#58A068" d="M.881 86.939l5.356-3.093 44.262 25.547v6.184z"/><path fill="#458550" d="M100.119 86.939l-5.355-3.093-44.265 25.547v6.184z"/><path fill="#559C65" d="M94.764 83.846l5.355 3.093v-57.301l-5.355 3.092z"/><path fill="#60B06A" d="M6.237 32.73l-5.356-3.092v57.301l5.356-3.093z"/><path fill-rule="evenodd" clip-rule="evenodd" fill="#60B06A" d="M49.833 32.612l-19.616 12.37v35.123h39.23v-35.123l-19.614-12.37zm0 18.527c-2.328 0-4.215-1.885-4.215-4.214 0-2.327 1.887-4.213 4.215-4.213 2.327 0 4.213 1.887 4.213 4.213 0 2.329-1.886 4.214-4.213 4.214"/><path fill="#559C65" d="M69.447 45.275v38.478h-39.23v-15.621z"/></svg>