<svg xmlns="http://www.w3.org/2000/svg" width="111.986" height="35.995" viewBox="0 0 111.986 35.995"><path fill="#fff" d="M2.204 34.995v-12.877h12.361c1.378 0 2.632-.289 3.76-.87 1.128-.579 2.099-1.347 2.914-2.303.814-.955 1.441-2.052 1.88-3.29.438-1.237.658-2.514.658-3.83 0-1.253-.235-2.491-.705-3.713s-1.128-2.31-1.974-3.266c-.846-.955-1.856-1.731-3.031-2.326s-2.452-.893-3.83-.893h-13.63v33.37h1.597zm0-31.866h11.985c1.096 0 2.13.243 3.102.729.971.486 1.817 1.128 2.538 1.927.72.799 1.292 1.724 1.715 2.773.423 1.05.635 2.139.635 3.267 0 1.097-.181 2.17-.541 3.219-.361 1.05-.869 1.99-1.528 2.82-.658.831-1.457 1.497-2.397 1.997-.94.502-2.006.752-3.196.752h-12.313v-17.484zM40.016 34.267c1.801-.799 3.25-1.934 4.347-3.407v2.162c0 .564.195 1.042.587 1.434.391.392.853.587 1.387.587.156 0 .282-.016.376-.047v-1.504c-.564 0-.846-.344-.846-1.034v-12.784c0-2.945-.822-5.264-2.467-6.956s-3.894-2.538-6.744-2.538c-2.632 0-5.531 1.066-8.695 3.196l.752 1.175c1.378-.971 2.733-1.715 4.065-2.233 1.331-.517 2.592-.776 3.784-.776 2.35 0 4.222.729 5.617 2.186 1.394 1.457 2.091 3.408 2.091 5.852v2.632c-1.097-.438-2.35-.767-3.76-.987-1.41-.219-2.789-.329-4.136-.329-1.504 0-2.875.173-4.112.517-1.238.345-2.303.831-3.196 1.457-.893.627-1.591 1.371-2.091 2.233-.502.862-.752 1.81-.752 2.844 0 1.066.203 2.053.611 2.961.407.909.971 1.7 1.692 2.373.72.674 1.566 1.207 2.538 1.598.971.391 2.021.588 3.149.588 2.066-.002 4.001-.401 5.803-1.2zm-8.202-.635c-.815-.313-1.512-.752-2.091-1.316-.58-.564-1.042-1.222-1.386-1.974-.345-.752-.517-1.566-.517-2.444 0-1.754.791-3.156 2.373-4.207 1.582-1.049 3.673-1.574 6.275-1.574 2.788 0 5.389.47 7.802 1.41v4.606c0 .596-.251 1.222-.752 1.88-.815 1.254-2.037 2.249-3.666 2.985-1.63.737-3.431 1.104-5.405 1.104-.941.001-1.818-.156-2.633-.47zM63.539 10.556c-.188 0-.408.008-.658.024-.251.016-.533.023-.846.023-1.598.188-3.102.831-4.512 1.927-1.41 1.097-2.538 2.507-3.384 4.23v-6.204h-1.551v24.44h1.598v-15.37c.658-2.287 1.817-4.096 3.478-5.428 1.66-1.331 3.619-2.045 5.875-2.139v-1.503zM78.79 34.972c1.144-.329 2.115-.806 2.914-1.433.799-.626 1.417-1.37 1.856-2.233.438-.861.658-1.84.658-2.938 0-1.065-.211-1.942-.634-2.632-.423-.689-1.042-1.269-1.856-1.739-.815-.47-1.802-.877-2.961-1.222-1.16-.344-2.491-.689-3.995-1.034-1.191-.282-2.202-.541-3.032-.776-.83-.235-1.52-.517-2.068-.846-.549-.329-.948-.744-1.199-1.246-.251-.501-.376-1.128-.376-1.88 0-.94.188-1.754.564-2.444.376-.689.885-1.261 1.528-1.715.642-.454 1.386-.783 2.232-.987.846-.203 1.755-.306 2.726-.306 1.504 0 2.921.251 4.254.752 1.331.502 2.342 1.222 3.032 2.162l1.081-.799c-.658-1.002-1.7-1.833-3.126-2.491-1.426-.658-3.125-.987-5.1-.987-1.191 0-2.311.141-3.36.423-1.05.282-1.974.713-2.773 1.293-.799.58-1.433 1.309-1.903 2.185-.47.878-.705 1.927-.705 3.149 0 .972.157 1.771.47 2.397.313.627.799 1.144 1.457 1.551.658.408 1.48.76 2.467 1.058.987.298 2.154.604 3.502.917 1.316.314 2.483.619 3.501.917 1.018.298 1.872.643 2.562 1.034.689.392 1.214.862 1.575 1.41.36.549.54 1.23.54 2.045 0 1.755-.705 3.118-2.115 4.089-1.41.972-3.259 1.457-5.546 1.457-1.692 0-3.228-.297-4.606-.893-1.379-.595-2.726-1.488-4.042-2.679l-.893 1.081c1.253 1.316 2.694 2.288 4.324 2.914 1.629.626 3.384.94 5.264.94 1.378-.001 2.639-.165 3.783-.494zM102.643 35.019c1.034-.297 1.989-.705 2.867-1.222.877-.517 1.652-1.143 2.326-1.88.674-.736 1.182-1.528 1.527-2.373l-1.457-.376c-.345.721-.799 1.387-1.363 1.998s-1.222 1.136-1.974 1.574c-.752.439-1.559.776-2.421 1.011-.862.235-1.747.353-2.655.353-1.347 0-2.617-.274-3.807-.823-1.191-.548-2.249-1.292-3.173-2.232-.924-.94-1.685-2.06-2.28-3.361-.595-1.3-.94-2.702-1.034-4.207h21.902l.023-.329.023-.376c0-1.723-.313-3.352-.94-4.888-.627-1.535-1.473-2.874-2.538-4.019-1.066-1.143-2.319-2.045-3.76-2.703-1.441-.658-2.993-.987-4.653-.987-1.661 0-3.196.329-4.606.987-1.41.658-2.648 1.551-3.713 2.679s-1.896 2.444-2.491 3.948c-.595 1.504-.893 3.118-.893 4.841 0 1.755.305 3.407.916 4.958.611 1.551 1.457 2.914 2.538 4.089s2.342 2.1 3.784 2.773c1.441.673 2.992 1.01 4.653 1.01 1.099.001 2.165-.148 3.199-.445zm-13.489-12.901c.094-1.504.415-2.898.964-4.183.548-1.284 1.276-2.397 2.185-3.337.909-.94 1.958-1.676 3.149-2.209 1.19-.532 2.475-.799 3.854-.799 1.378 0 2.663.258 3.854.775 1.19.517 2.248 1.246 3.173 2.186.924.94 1.668 2.053 2.232 3.337.564 1.285.893 2.695.987 4.23h-20.398z"/></svg>