<svg xmlns="http://www.w3.org/2000/svg" width="83.625" height="96.25" viewBox="0 0 83.625 96.25"><g fill="#fff"><path d="M58.32 70.166h-33.046l-.108-1.363c-1.705-21.653-3.688-38.956-3.708-39.128l-.189-1.648h41.043l-3.992 42.139zm-30.312-2.959h27.621l3.432-36.223h-34.478c.52 4.708 2.046 18.98 3.425 36.223zM26.173 50.438l-1.234-2.689c.181-.083.529-.322.866-.554 2.039-1.4 6.283-4.316 13.143-1.327l-1.182 2.712c-5.354-2.335-8.322-.295-10.286 1.053-.481.331-.896.616-1.307.805zM52.806 48.168c-.671 0-1.389-.04-2.157-.13l.346-2.938c4.754.562 6.916-1.151 7.006-1.224l1.919 2.251c-.11.094-2.423 2.041-7.114 2.041zM39.889 55.779l-4.907-13.514 13.517-4.906 4.901 13.514-13.511 4.906zm-1.117-11.743l2.888 7.953 7.951-2.887-2.885-7.953-7.954 2.887z"/></g><path fill="#9A2E2E" d="M41.812 95.396l-40.94-23.637v-47.273l40.94-23.632 40.941 23.632v47.273l-40.941 23.637zm-37.981-25.344l37.98 21.929 37.982-21.929v-43.858l-37.981-21.924-37.981 21.924v43.858z"/></svg>