<svg xmlns="http://www.w3.org/2000/svg" width="83.625" height="96.25" viewBox="0 0 83.625 96.25"><path fill="#9A2E2E" d="M41.811 95.396l-40.939-23.637v-47.273l40.939-23.632 40.942 23.632v47.273l-40.942 23.637zm-37.98-25.344l37.98 21.928 37.983-21.929v-43.857l-37.983-21.924-37.98 21.924v43.858z"/><path fill="#fff" d="M62.902 29.908l-8.4-6.961c-.5-.414-1.304-.337-1.72.161l-4.975 6.003v.002l-2.467 2.976v.001l-22.466 28.051c-.127.154-.217.338-.257.533l-2.279 11.098c-.09.438.066.885.401 1.174.254.217.584.316.91.287.104-.01.211-.033.312-.07l10.516-3.938c.199-.074.379-.199.512-.363l30.073-37.234c.433-.519.361-1.29-.16-1.72zm-8.383 8.202l-6.517-5.404.903-1.096 6.521 5.403-.907 1.097zm-2.464 2.976l-6.521-5.403.907-1.095 6.521 5.4-.907 1.098zm-2.467 2.976l-6.521-5.401.91-1.099 6.518 5.404-.907 1.096zm-17.536 22.101l-6.518-5.402 15.973-20.221 6.52 5.403-15.975 20.22zm-7.45-3.006l5.324 4.416-6.751 2.523 1.427-6.939zm32.384-28.024l-6.521-5.401 3.418-4.124 6.52 5.4-3.417 4.125z"/></svg>